<svg width="293" height="53" viewBox="0 0 293 53" fill="none" xmlns="http://www.w3.org/2000/svg">
<path d="M8.46094 34.6406V48H3.96094V13.875H16.5469C20.2812 13.875 23.2031 14.8281 25.3125 16.7344C27.4375 18.6406 28.5 21.1641 28.5 24.3047C28.5 27.6172 27.4609 30.1719 25.3828 31.9688C23.3203 33.75 20.3594 34.6406 16.5 34.6406H8.46094ZM8.46094 30.9609H16.5469C18.9531 30.9609 20.7969 30.3984 22.0781 29.2734C23.3594 28.1328 24 26.4922 24 24.3516C24 22.3203 23.3594 20.6953 22.0781 19.4766C20.7969 18.2578 19.0391 17.625 16.8047 17.5781H8.46094V30.9609ZM43.7578 48.4688C40.3203 48.4688 37.5234 47.3438 35.3672 45.0938C33.2109 42.8281 32.1328 39.8047 32.1328 36.0234V35.2266C32.1328 32.7109 32.6094 30.4688 33.5625 28.5C34.5312 26.5156 35.875 24.9688 37.5938 23.8594C39.3281 22.7344 41.2031 22.1719 43.2188 22.1719C46.5156 22.1719 49.0781 23.2578 50.9062 25.4297C52.7344 27.6016 53.6484 30.7109 53.6484 34.7578V36.5625H36.4688C36.5312 39.0625 37.2578 41.0859 38.6484 42.6328C40.0547 44.1641 41.8359 44.9297 43.9922 44.9297C45.5234 44.9297 46.8203 44.6172 47.8828 43.9922C48.9453 43.3672 49.875 42.5391 50.6719 41.5078L53.3203 43.5703C51.1953 46.8359 48.0078 48.4688 43.7578 48.4688ZM43.2188 25.7344C41.4688 25.7344 40 26.375 38.8125 27.6562C37.625 28.9219 36.8906 30.7031 36.6094 33H49.3125V32.6719C49.1875 30.4688 48.5938 28.7656 47.5312 27.5625C46.4688 26.3438 45.0312 25.7344 43.2188 25.7344ZM64.5703 16.5V22.6406H69.3047V25.9922H64.5703V41.7188C64.5703 42.7344 64.7812 43.5 65.2031 44.0156C65.625 44.5156 66.3438 44.7656 67.3594 44.7656C67.8594 44.7656 68.5469 44.6719 69.4219 44.4844V48C68.2812 48.3125 67.1719 48.4688 66.0938 48.4688C64.1562 48.4688 62.6953 47.8828 61.7109 46.7109C60.7266 45.5391 60.2344 43.875 60.2344 41.7188V25.9922H55.6172V22.6406H60.2344V16.5H64.5703ZM89.1562 41.2734C89.1562 40.1016 88.7109 39.1953 87.8203 38.5547C86.9453 37.8984 85.4062 37.3359 83.2031 36.8672C81.0156 36.3984 79.2734 35.8359 77.9766 35.1797C76.6953 34.5234 75.7422 33.7422 75.1172 32.8359C74.5078 31.9297 74.2031 30.8516 74.2031 29.6016C74.2031 27.5234 75.0781 25.7656 76.8281 24.3281C78.5938 22.8906 80.8438 22.1719 83.5781 22.1719C86.4531 22.1719 88.7812 22.9141 90.5625 24.3984C92.3594 25.8828 93.2578 27.7812 93.2578 30.0938H88.8984C88.8984 28.9062 88.3906 27.8828 87.375 27.0234C86.375 26.1641 85.1094 25.7344 83.5781 25.7344C82 25.7344 80.7656 26.0781 79.875 26.7656C78.9844 27.4531 78.5391 28.3516 78.5391 29.4609C78.5391 30.5078 78.9531 31.2969 79.7812 31.8281C80.6094 32.3594 82.1016 32.8672 84.2578 33.3516C86.4297 33.8359 88.1875 34.4141 89.5312 35.0859C90.875 35.7578 91.8672 36.5703 92.5078 37.5234C93.1641 38.4609 93.4922 39.6094 93.4922 40.9688C93.4922 43.2344 92.5859 45.0547 90.7734 46.4297C88.9609 47.7891 86.6094 48.4688 83.7188 48.4688C81.6875 48.4688 79.8906 48.1094 78.3281 47.3906C76.7656 46.6719 75.5391 45.6719 74.6484 44.3906C73.7734 43.0938 73.3359 41.6953 73.3359 40.1953H77.6719C77.75 41.6484 78.3281 42.8047 79.4062 43.6641C80.5 44.5078 81.9375 44.9297 83.7188 44.9297C85.3594 44.9297 86.6719 44.6016 87.6562 43.9453C88.6562 43.2734 89.1562 42.3828 89.1562 41.2734ZM126.047 48H121.523V32.2266H104.32V48H99.8203V13.875H104.32V28.5469H121.523V13.875H126.047V48ZM132.211 35.0859C132.211 32.6016 132.695 30.3672 133.664 28.3828C134.648 26.3984 136.008 24.8672 137.742 23.7891C139.492 22.7109 141.484 22.1719 143.719 22.1719C147.172 22.1719 149.961 23.3672 152.086 25.7578C154.227 28.1484 155.297 31.3281 155.297 35.2969V35.6016C155.297 38.0703 154.82 40.2891 153.867 42.2578C152.93 44.2109 151.578 45.7344 149.812 46.8281C148.062 47.9219 146.047 48.4688 143.766 48.4688C140.328 48.4688 137.539 47.2734 135.398 44.8828C133.273 42.4922 132.211 39.3281 132.211 35.3906V35.0859ZM136.57 35.6016C136.57 38.4141 137.219 40.6719 138.516 42.375C139.828 44.0781 141.578 44.9297 143.766 44.9297C145.969 44.9297 147.719 44.0703 149.016 42.3516C150.312 40.6172 150.961 38.1953 150.961 35.0859C150.961 32.3047 150.297 30.0547 148.969 28.3359C147.656 26.6016 145.906 25.7344 143.719 25.7344C141.578 25.7344 139.852 26.5859 138.539 28.2891C137.227 29.9922 136.57 32.4297 136.57 35.6016ZM166.617 16.5V22.6406H171.352V25.9922H166.617V41.7188C166.617 42.7344 166.828 43.5 167.25 44.0156C167.672 44.5156 168.391 44.7656 169.406 44.7656C169.906 44.7656 170.594 44.6719 171.469 44.4844V48C170.328 48.3125 169.219 48.4688 168.141 48.4688C166.203 48.4688 164.742 47.8828 163.758 46.7109C162.773 45.5391 162.281 43.875 162.281 41.7188V25.9922H157.664V22.6406H162.281V16.5H166.617ZM186.961 48.4688C183.523 48.4688 180.727 47.3438 178.57 45.0938C176.414 42.8281 175.336 39.8047 175.336 36.0234V35.2266C175.336 32.7109 175.812 30.4688 176.766 28.5C177.734 26.5156 179.078 24.9688 180.797 23.8594C182.531 22.7344 184.406 22.1719 186.422 22.1719C189.719 22.1719 192.281 23.2578 194.109 25.4297C195.938 27.6016 196.852 30.7109 196.852 34.7578V36.5625H179.672C179.734 39.0625 180.461 41.0859 181.852 42.6328C183.258 44.1641 185.039 44.9297 187.195 44.9297C188.727 44.9297 190.023 44.6172 191.086 43.9922C192.148 43.3672 193.078 42.5391 193.875 41.5078L196.523 43.5703C194.398 46.8359 191.211 48.4688 186.961 48.4688ZM186.422 25.7344C184.672 25.7344 183.203 26.375 182.016 27.6562C180.828 28.9219 180.094 30.7031 179.812 33H192.516V32.6719C192.391 30.4688 191.797 28.7656 190.734 27.5625C189.672 26.3438 188.234 25.7344 186.422 25.7344ZM206.602 48H202.266V12H206.602V48Z" fill="white"/>
<path d="M242.436 7.83263C241.452 6.84863 240.578 7.55411 240.351 7.77218L225.423 22.7021H225.421C223.459 24.6647 225.421 24.7833 225.421 24.7833H225.609C225.904 24.7933 227.069 24.9448 227.069 26.7375V44.7969C227.106 45.7603 227.47 48.3259 230.285 48.3259H251.916C255.101 48.3259 255.241 44.9928 255.247 44.4863V26.9304C255.247 24.6838 257.086 24.7825 257.086 24.7825H257.478C257.761 24.7802 259.272 24.6838 257.434 22.8421L242.436 7.83263Z" fill="white"/>
<path d="M265.012 22.1672L244.578 1.45424C244.566 1.442 244.559 1.43665 244.547 1.4244C241.962 -1.19475 239.624 0.467184 238.856 1.16119L217.867 21.8696C217.867 21.8696 216.252 23.3747 217.43 24.5676L217.574 24.7129C217.574 24.7129 218.538 25.8308 220.233 24.1582L239.709 4.94492L239.815 4.83933C240.223 4.45828 241.775 3.23861 243.458 4.94263L262.703 24.4497C262.703 24.4497 264.255 26.0543 265.332 24.9915L265.761 24.5706C265.761 24.5691 265.761 24.5676 265.761 24.5676C266.586 23.6899 265.012 22.1672 265.012 22.1672Z" fill="white"/>
</svg>
