<svg width="100" height="50" viewBox="0 0 638 155" fill="none" xmlns="http://www.w3.org/2000/svg">
  <path d="M273.729 110.587c-.361 1.136-2.066 1.7-3.825 1.25-1.751-.446-2.89-1.719-2.539-2.86.347-1.131 2.057-1.704 3.821-1.263 1.754.437 2.885 1.728 2.543 2.873zm-3.111 6.437c-.689.989-2.399.896-3.84-.189-1.438-1.117-2.055-2.804-1.38-3.788.68-.993 2.386-.891 3.818.213 1.446 1.098 2.064 2.785 1.402 3.764zm1.297-13.256c-.055 1.24-1.53 2.248-3.278 2.303-1.754-.003-3.135-.96-3.085-2.19.051-1.231 1.513-2.235 3.271-2.263 1.757-.028 3.139.951 3.092 2.15zm-7.832 16.207c-.911.781-2.537.307-3.606-1.088-1.07-1.394-1.192-3.164-.26-3.968.933-.804 2.541-.316 3.633 1.056 1.043 1.404 1.17 3.187.233 4zm-8.98-6.195c-.863-.373-1.486-1.474-1.463-2.418.04-1.968 2.493-3.137 3.359-4.929.866-1.791.204-4.488 1.771-5.686.876-.687 2.347-.742 3.263-.155 1.263.81 1.205 2.77 1.725 4.198.656 1.883 2.606 3.937 1.732 5.747-.871 1.8-3.682 1.619-5.575 2.204-1.581.468-3.314 1.686-4.812 1.039zM371.346 146.208c-.838.848-2.613.574-3.975-.627-1.355-1.194-1.791-2.846-.959-3.702.824-.85 2.607-.582 3.977.614 1.363 1.187 1.783 2.851.957 3.715zm-5.7 4.317c-1.063.567-2.543-.294-3.333-1.917-.772-1.648-.554-3.431.495-4 1.058-.575 2.53.292 3.304 1.927.787 1.636.569 3.419-.466 3.99zm7.188-11.214c-.613 1.079-2.386 1.305-3.967.559-1.56-.801-2.355-2.281-1.75-3.354s2.364-1.301 3.941-.527c1.578.775 2.363 2.275 1.776 3.322zm-14.35 10.867c-1.166.281-2.398-.881-2.716-2.609-.318-1.729.379-3.36 1.575-3.652 1.197-.291 2.406.875 2.754 2.594.29 1.724-.408 3.369-1.613 3.667zm-5.176-9.602c-.6-.725-.654-1.989-.204-2.819.932-1.734 3.649-1.659 5.235-2.86 1.587-1.202 2.224-3.905 4.164-4.258 1.093-.213 2.428.407 2.977 1.346.756 1.297-.188 3.015-.375 4.524-.273 1.975.53 4.692-1.073 5.905-1.594 1.208-4.015-.233-5.966-.574-1.622-.303-3.719-.007-4.758-1.264zM434.121 36.4608c.965.6996.964 2.4958-.017 4.0241-.974 1.5211-2.541 2.2026-3.513 1.5101-.965-.6854-.971-2.4887.002-4.0239.967-1.5281 2.548-2.1956 3.528-1.5103zm5.132 4.9785c.721.9649.095 2.5585-1.389 3.5853-1.512 1.013-3.307 1.0685-4.029.1177-.729-.9578-.095-2.5444 1.403-3.5572 1.498-1.027 3.293-1.0825 4.015-.1458zm-12.175-5.402c1.159.442 1.652 2.1601 1.154 3.8366-.555 1.6633-1.897 2.6737-3.049 2.2386-1.153-.4351-1.645-2.139-1.119-3.816.526-1.6769 1.89-2.6806 3.014-2.2592zm12.919 12.5333c.456 1.1104-.506 2.504-2.166 3.0808-1.661.5768-3.379.1362-3.849-1.0023-.47-1.1386.5-2.5111 2.145-3.1159 1.661-.5486 3.393-.1081 3.87 1.0374zm-8.704 6.5746c-.626.7025-1.867.9476-2.756.6288-1.856-.6579-2.194-3.3542-3.622-4.7398-1.428-1.3856-4.197-1.6053-4.84-3.4696-.377-1.048.033-2.4615.878-3.1461 1.167-.9442 3.009-.272 4.529-.3163 1.993-.0302 4.556-1.236 5.999.1636 1.436 1.3925.379 4.004.338 5.9847-.052 1.6485.558 3.676-.526 4.8947zM508.729 99.0796c-.361 1.1364-2.066 1.7004-3.825 1.2504-1.751-.4464-2.89-1.7192-2.539-2.8599.347-1.1318 2.057-1.7049 3.821-1.2635 1.754.4371 2.885 1.7279 2.543 2.873zm-3.111 6.4374c-.689.989-2.399.896-3.84-.19-1.438-1.116-2.055-2.803-1.38-3.787.68-.993 2.386-.891 3.818.212 1.446 1.099 2.064 2.786 1.402 3.765zm1.297-13.256c-.055 1.2396-1.53 2.2479-3.278 2.3027-1.754-.0032-3.135-.9597-3.085-2.1903.051-1.2306 1.513-2.2343 3.271-2.2624 1.757-.0281 3.139.9507 3.092 2.15zm-7.832 16.206c-.911.782-2.537.307-3.606-1.087-1.07-1.395-1.192-3.164-.26-3.968.933-.804 2.541-.316 3.633 1.056 1.043 1.403 1.17 3.186.233 3.999zm-8.98-6.194c-.863-.373-1.486-1.474-1.463-2.4179.04-1.9685 2.493-3.1375 3.359-4.9292.866-1.7917.204-4.4887 1.771-5.686.876-.6872 2.347-.7427 3.263-.1557 1.263.8104 1.205 2.7702 1.725 4.1989.656 1.883 2.606 3.9365 1.732 5.7463-.871 1.8006-3.682 1.6196-5.575 2.2036-1.581.469-3.314 1.686-4.812 1.04zM615.007 9.10103c.939.73389.874 2.52897-.162 4.02097-1.028 1.4851-2.618 2.1097-3.565 1.3828-.939-.7198-.881-2.5221.148-4.0213 1.021-1.49228 2.625-2.1025 3.579-1.38247zm4.949 5.15987c.687.9903.004 2.5604-1.516 3.5331-1.547.9579-3.344.9488-4.031-.0273-.694-.9834-.003-2.5462 1.53-3.5045 1.534-.9724 3.33-.9633 4.017-.0013zm-11.972-5.83646c1.143.4835 1.573 2.21816 1.015 3.87566-.614 1.6422-1.992 2.6037-3.128 2.1275-1.135-.4763-1.566-2.1969-.98-3.8538.586-1.65694 1.985-2.61091 3.093-2.14936zm12.46 12.98996c.415 1.1261-.596 2.4842-2.276 3.0009-1.68.5167-3.381.0145-3.81-1.1401-.428-1.1547.59-2.4915 2.256-3.0367 1.679-.4885 3.395.014 3.83 1.1759zm-8.935 6.2572c-.651.6796-1.9.8799-2.777.5293-1.831-.7242-2.071-3.4309-3.449-4.867-1.378-1.4362-4.136-1.7553-4.712-3.6415-.339-1.0608.122-2.4587.991-3.1125 1.2-.9016 3.016-.1636 4.537-.1531 1.993.0414 4.598-1.0713 5.989.3792 1.385 1.4433.235 4.0151.123 5.9931-.112 1.6455.425 3.6936-.702 4.8725z" fill="#000" fill-opacity=".38"/>
  <path d="M567.496 120.139c-.838.848-2.613.574-3.975-.627-1.356-1.194-1.791-2.846-.959-3.702.824-.85 2.607-.582 3.977.614 1.363 1.187 1.783 2.851.957 3.715zm-5.7 4.317c-1.063.567-2.543-.294-3.333-1.917-.772-1.648-.554-3.431.495-4 1.058-.575 2.53.292 3.303 1.927.788 1.636.57 3.419-.465 3.99zm7.188-11.214c-.613 1.079-2.386 1.305-3.968.559-1.559-.801-2.354-2.281-1.749-3.354s2.364-1.301 3.941-.526c1.578.774 2.363 2.275 1.776 3.321zm-14.35 10.867c-1.166.282-2.398-.881-2.716-2.609-.318-1.729.378-3.36 1.575-3.652 1.197-.291 2.406.875 2.754 2.594.29 1.724-.408 3.37-1.613 3.667zm-5.176-9.602c-.6-.725-.654-1.989-.204-2.819.932-1.734 3.649-1.659 5.235-2.86 1.587-1.202 2.224-3.905 4.164-4.258 1.093-.213 2.428.407 2.977 1.346.756 1.297-.188 3.015-.375 4.524-.273 1.976.53 4.692-1.073 5.905-1.594 1.208-4.015-.233-5.967-.574-1.621-.302-3.718-.007-4.757-1.264zM627.762 67.4608c.965.6996.964 2.4958-.017 4.0241-.974 1.5211-2.54 2.2026-3.513 1.5101-.965-.6854-.971-2.4887.003-4.0239.967-1.5281 2.548-2.1956 3.527-1.5103zm5.132 4.9785c.722.9649.095 2.5585-1.388 3.5853-1.512 1.013-3.308 1.0685-4.03.1177-.728-.9578-.095-2.5444 1.403-3.5572 1.498-1.027 3.294-1.0825 4.015-.1458zm-12.175-5.402c1.159.442 1.652 2.1601 1.154 3.8366-.554 1.6633-1.897 2.6737-3.049 2.2386-1.152-.4351-1.645-2.139-1.119-3.816.526-1.6769 1.89-2.6806 3.014-2.2592zm12.92 12.5333c.455 1.1104-.507 2.504-2.167 3.0808-1.66.5768-3.378.1362-3.848-1.0023-.47-1.1386.499-2.5111 2.145-3.1159 1.66-.5486 3.393-.1081 3.87 1.0374zm-8.705 6.5746c-.626.7025-1.867.9476-2.756.6288-1.855-.6579-2.193-3.3542-3.622-4.7398-1.428-1.3856-4.196-1.6053-4.84-3.4696-.377-1.048.033-2.4615.879-3.1461 1.166-.9442 3.008-.272 4.528-.3163 1.994-.0302 4.557-1.236 5.999.1636 1.436 1.3925.379 4.004.339 5.9847-.053 1.6485.558 3.676-.527 4.8947z" fill="#D7B7FD"/>
  <path d="M493.685 8.46076c.965.69961.964 2.49584-.017 4.02414-.974 1.5211-2.54 2.2026-3.513 1.5101-.965-.6854-.971-2.4887.003-4.0239.967-1.52805 2.548-2.19559 3.527-1.51034zm5.132 4.97854c.722.9649.096 2.5585-1.388 3.5853-1.512 1.013-3.308 1.0685-4.029.1177-.729-.9578-.096-2.5444 1.403-3.5572 1.497-1.027 3.293-1.0825 4.014-.1458zm-12.175-5.40204c1.16.44208 1.652 2.16014 1.155 3.83664-.555 1.6633-1.898 2.6737-3.05 2.2386-1.152-.4351-1.645-2.139-1.118-3.816.526-1.67695 1.889-2.68064 3.013-2.25924zm12.92 12.53334c.455 1.1104-.507 2.504-2.167 3.0808-1.66.5768-3.378.1362-3.848-1.0023-.47-1.1386.499-2.5111 2.145-3.1159 1.661-.5486 3.393-.1081 3.87 1.0374zm-8.705 6.5746c-.626.7025-1.867.9476-2.755.6288-1.856-.6579-2.194-3.3542-3.622-4.7398-1.429-1.3856-4.197-1.6053-4.841-3.4696-.376-1.048.034-2.4615.879-3.1461 1.167-.9442 3.008-.272 4.528-.3163 1.994-.0302 4.557-1.236 6 .1636 1.435 1.3925.379 4.004.338 5.9847-.053 1.6485.558 3.676-.527 4.8947z" fill="#000" fill-opacity=".38"/>
  <path d="M383.861 3.14821c1.111.43072 1.568 2.16803 1.008 3.89574-.554 1.719-1.896 2.77697-3.012 2.35496-1.108-.41709-1.573-2.15931-1.023-3.89193.546-1.7239 1.905-2.77205 3.027-2.35877zm6.23 3.50748c.944.74933.744 2.44992-.429 3.82061-1.205 1.3647-2.927 1.8756-3.867 1.1399-.948-.7406-.74-2.43628.451-3.79717 1.187-1.37451 2.909-1.88543 3.845-1.16334zm-13.149-2.12347c1.234.13225 2.148 1.66816 2.093 3.4162-.112 1.74965-1.153 3.06868-2.378 2.94128-1.225-.1273-2.136-1.64961-2.054-3.40526.082-1.75565 1.145-3.07355 2.339-2.95222zm15.685 8.82998c.724.9579.148 2.5505-1.31 3.5311-1.459.9806-3.233.992-3.977.0106-.744-.9813-.156-2.5554 1.281-3.5594 1.466-.9533 3.253-.9685 4.006.0177zm-6.743 8.5746c-.426.8387-1.564 1.3918-2.505 1.3098-1.962-.1636-2.975-2.6849-4.709-3.6611-1.734-.9762-4.467-.4836-5.565-2.1226-.631-.9175-.594-2.3888.049-3.2662.888-1.2101 2.84-1.0291 4.298-1.459 1.921-.537 4.092-2.3556 5.844-1.3696 1.743.9811 1.386 3.7755 1.851 5.7012.369 1.6077 1.476 3.4128.737 4.8675z" fill="#D7B7FD"/>
  <path d="M105.528 45.0234c1.142.3427 1.732 2.0392 1.309 3.8052-.419 1.757-1.674 2.9164-2.82 2.5827-1.137-.3295-1.736-2.0301-1.322-3.8004.41-1.7612 1.683-2.9121 2.833-2.5875zm6.485 3.0111c.999.6734.933 2.3844-.13 3.8424-1.094 1.4545-2.771 2.0981-3.766 1.4379-1.003-.6644-.928-2.3712.153-3.8208 1.076-1.4628 2.753-2.1065 3.743-1.4595zm-13.2746-1.0919c1.2403.0356 2.2716 1.4956 2.3536 3.2426.024 1.7531-.911 3.1492-2.1425 3.1178-1.2313-.0315-2.2575-1.4782-2.3128-3.2348-.0554-1.7567.9018-3.1535 2.1017-3.1256zm16.3256 7.5803c.796.8986.347 2.5312-1.031 3.6225s-3.145 1.2409-3.964.3206c-.818-.9203-.355-2.5354 1-3.6484 1.387-1.0648 3.168-1.2192 3.995-.2947zm-6.054 9.0742c-.36.8694-1.451 1.5095-2.395 1.501-1.969-.0101-3.176-2.4448-4.981-3.2828-1.8045-.838-4.4909-.1339-5.7124-1.6823-.7007-.8655-.779-2.3352-.2063-3.26.7907-1.2757 2.7512-1.2474 4.1716-1.7897 1.8731-.6851 3.8961-2.6675 5.7191-1.821 1.814.8422 1.676 3.6559 2.29 5.5396.493 1.574 1.737 3.2873 1.114 4.7952z" fill="#000" fill-opacity=".38"/>
  <path d="M190.516 11.4783c.673.9844.065 2.6749-1.374 3.7823-1.43 1.1029-3.135 1.2155-3.817.2355-.677-.9711-.074-2.6705 1.361-3.7869 1.426-1.1119 3.14-1.2065 3.83-.2309zm3.15 6.4187c.354 1.152-.774 2.4406-2.517 2.9062-1.765.443-3.474-.1108-3.832-1.2494-.363-1.1476.769-2.4272 2.521-2.8748 1.757-.4611 3.465.0928 3.828 1.218zm-9.636-9.19497c.942.80753.826 2.59107-.209 4.00117-1.083 1.3783-2.688 1.8762-3.626 1.0777-.938-.7986-.826-2.5688.235-3.96964 1.062-1.40088 2.684-1.88525 3.6-1.10923zm7.93 16.15907c.054 1.1989-1.322 2.186-3.08 2.1685-1.757-.0175-3.226-1.0123-3.284-2.2426-.058-1.2303 1.318-2.1951 3.071-2.2089 1.749.0443 3.23 1.0437 3.293 2.283zm-10.413 3.25c-.827.45-2.077.2618-2.806-.3384-1.525-1.2456-.933-3.8978-1.81-5.6842-.876-1.7865-3.408-2.9279-3.385-4.8999 0-1.1136.863-2.3058 1.89-2.6649 1.417-.4948 2.923.7596 4.369 1.231 1.887.6446 4.706.3749 5.592 2.1793.881 1.7954-.995 3.8969-1.702 5.7476-.606 1.534-.716 3.6485-2.148 4.4295zM103.724 109.583c.962.704.953 2.501-.035 4.024-.981 1.517-2.551 2.191-3.52 1.494-.9622-.69-.9601-2.493.021-4.024.974-1.523 2.558-2.183 3.534-1.494zm5.109 5.002c.717.969.084 2.559-1.405 3.579-1.517 1.006-3.312 1.054-4.029.099-.725-.961-.084-2.544 1.419-3.55 1.502-1.02 3.298-1.068 4.015-.128zm-12.1501-5.458c1.1574.448 1.6423 2.168 1.1368 3.842-.5623 1.661-1.9094 2.665-3.0596 2.225-1.1503-.44-1.6351-2.147-1.1012-3.821.5338-1.675 1.9022-2.672 3.024-2.246zm12.8621 12.593c.45 1.112-.518 2.502-2.181 3.071-1.663.569-3.379.12-3.843-1.02-.465-1.141.51-2.509 2.159-3.106 1.663-.541 3.393-.093 3.865 1.055zm-8.735 6.534c-.629.7-1.8709.94-2.7583.617-1.8527-.667-2.1783-3.365-3.6002-4.757-1.422-1.392-4.1894-1.624-4.8244-3.491-.3718-1.05.0446-2.462.8931-3.142 1.171-.939 3.0097-.259 4.5297-.296 1.9939-.021 4.5623-1.215 5.9981.191 1.43 1.399.361 4.006.311 5.986-.06 1.649.541 3.679-.549 4.892zM6.39092 78.4682c1.18-.17 2.43 1.12 2.79 2.9.36 1.77-.29 3.35-1.47 3.53-1.17.18-2.43-1.11-2.8-2.89-.37-1.77.3-3.35 1.48-3.54zm7.14998 0c1.19.19 1.85 1.77 1.5 3.54-.38 1.78-1.63 3.07-2.81 2.89-1.19-.18-1.84-1.76-1.47-3.53.36-1.78 1.61-3.07 2.78-2.9zm-12.49998 4.6c1.14-.49 2.69.4 3.5 1.95.76 1.58.5 3.24-.63 3.73-1.13.49-2.67-.39-3.459998-1.96-.79-1.57-.51-3.24.589998-3.72zm17.99998 0c1.1.48 1.38 2.15.59 3.72-.79 1.57-2.33 2.45-3.46 1.96-1.13-.49-1.39-2.15-.63-3.73.81-1.55 2.36-2.44 3.5-1.95zm-1.67 10.78c.04.94-.68 1.98-1.54 2.37-1.79.82-3.91-.88-5.89998-.88-1.99 0-4.13 1.77-5.89.88-1-.49-1.69-1.79-1.56-2.87.18-1.49 1.97-2.29 3.03-3.38 1.41-1.41 2.41-4.06 4.42-4.06 1.99998 0 3.05998 2.61 4.40998 4.06 1.11 1.22 2.96 2.25 3.03 3.88z" fill="#D7B7FD"/>
</svg>