<svg width="31" height="31" viewBox="0 0 31 31" fill="none" xmlns="http://www.w3.org/2000/svg">
<path fill-rule="evenodd" clip-rule="evenodd" d="M15.5 0.916626C7.44996 0.916626 0.916626 7.44996 0.916626 15.5C0.916626 23.55 7.44996 30.0833 15.5 30.0833C23.55 30.0833 30.0833 23.55 30.0833 15.5C30.0833 7.44996 23.55 0.916626 15.5 0.916626ZM15.5 5.29163C17.9208 5.29163 19.875 7.24579 19.875 9.66663C19.875 12.0875 17.9208 14.0416 15.5 14.0416C13.0791 14.0416 11.125 12.0875 11.125 9.66663C11.125 7.24579 13.0791 5.29163 15.5 5.29163ZM6.74996 21.3041C8.63121 24.1332 11.8541 25.9999 15.5 25.9999C19.1458 25.9999 22.3687 24.1332 24.25 21.3041C24.2062 18.402 18.402 16.8124 15.5 16.8124C12.5833 16.8124 6.79371 18.402 6.74996 21.3041Z" fill="white"/>
</svg>
